<?xml version="1.0" encoding="UTF-8"?>
<svg id="Layer_2" data-name="Layer 2" xmlns="http://www.w3.org/2000/svg" viewBox="0 0 473.85 469.29">
  <defs>
    <style>
      .cls-1 {
        fill: #e3b3ff;
      }

      .cls-2 {
        fill: #032a2c;
      }

      .cls-3 {
        fill: #d9d9d9;
      }

      .cls-4 {
        fill: #f8a39d;
        stroke: #f8a39d;
        stroke-miterlimit: 10;
        stroke-width: 3px;
      }

      .cls-5 {
        fill: #32ce78;
      }

      .cls-6 {
        fill: #ed1c24;
      }

      .cls-7 {
        fill: #ffa1e1;
      }

      .cls-8 {
        fill: #43a8b1;
      }

      .cls-9 {
        fill: #f5c05e;
      }
    </style>
  </defs>
  <g id="Layer_1-2" data-name="Layer 1">
    <g>
      <path class="cls-4" d="M394.32,242.36c14.37-10.48,23.53-25.28,58.29-39.5,32.3-13.2,15.23-26.9,15.23-26.9,0,0-18.58-15.04-59.33,14.49-50.76,36.77-32.23-46.83-29.81-60.6,4.1-23.36,8.95-70.1,8.1-82.43-1.66-24.98-6.96-37.27-23.97-32.38-15.74,4.52-12.93,20.76-11.65,57.68,1.36,39.04,4.77,76.28.02,77-13.04,1.96-11.14-40.03-15.17-80.16-3.01-30.03-6.45-53.65-10.09-60.49-6.24-11.75-27.83-9.2-30.76,3.37-3.69,15.85,2.22,37.21,12.7,82.73,9.03,39.23,6.58,55.24-2.42,52.02-2.93-1.05-4.84-10.36-12.05-45.01-5.63-27.1-9.35-55.23-19.84-64.29-6.27-5.41-27.34,2.99-23.85,23.73,2.02,12.01,10.44,30.86,18.01,57.76,5.36,19.04,9.85,53.3,3.14,53.22-12.84-.15-16.42-38.96-17.52-48-1.4-11.5-8.69-30.75-14.47-30.57-11.13.34-20.26,13.48-1.65,60.94,8.3,21.15,14.79,64.87,21.69,85.49,7.36,22,14.39,32.43,34.06,37.12,24.79,5.92,67.71-11.86,78.01-18.25,10.94-6.79,16.32-11.95,23.29-17.07l.03.11Z"/>
      <g>
        <path class="cls-7" d="M329.19,296.93l-40.46,1.61c-9.83.41-19.05-5.78-20.24-15.3-1.1-8.8,6.12-18.31,16-18.7,13.49-.55,26.99-1.11,40.46-1.61,9.83-.41,19.05,5.78,20.24,15.3,1.1,8.8-6.12,18.31-16,18.7Z"/>
        <path class="cls-1" d="M328.38,290.35c-13.49.55-26.99,1.11-40.46,1.61-5.84.24-12-3.52-12.45-9.43-.45-5.4,3.6-11.28,9.87-11.5l40.46-1.61c5.84-.24,12,3.52,12.45,9.43.45,5.4-3.6,11.28-9.87,11.5Z"/>
      </g>
    </g>
    <g>
      <path class="cls-4" d="M79.53,242.36c-14.37-10.48-23.53-25.28-58.29-39.5-32.3-13.2-15.23-26.9-15.23-26.9,0,0,18.58-15.04,59.33,14.49,50.76,36.77,32.23-46.83,29.81-60.6-4.1-23.36-8.95-70.1-8.1-82.43,1.66-24.98,6.96-37.27,23.97-32.38,15.74,4.52,12.93,20.76,11.65,57.68-1.36,39.04-4.77,76.28-.02,77,13.04,1.96,11.14-40.03,15.17-80.16,3.01-30.03,6.45-53.65,10.09-60.49,6.24-11.75,27.83-9.2,30.76,3.37,3.69,15.85-2.22,37.21-12.7,82.73-9.03,39.23-6.58,55.24,2.42,52.02,2.93-1.05,4.84-10.36,12.05-45.01,5.63-27.1,9.35-55.23,19.84-64.29,6.27-5.41,27.34,2.99,23.85,23.73-2.02,12.01-10.44,30.86-18.01,57.76-5.36,19.04-9.85,53.3-3.14,53.22,12.84-.15,16.42-38.96,17.52-48,1.4-11.5,8.69-30.75,14.47-30.57,11.13.34,20.26,13.48,1.65,60.94-8.3,21.15-14.79,64.87-21.69,85.49-7.36,22-14.39,32.43-34.06,37.12-24.79,5.92-67.71-11.86-78.01-18.25-10.94-6.79-16.32-11.95-23.29-17.07l-.03.11Z"/>
      <g>
        <path class="cls-7" d="M144.66,296.93l40.46,1.61c9.83.41,19.05-5.78,20.24-15.3,1.1-8.8-6.12-18.31-16-18.7-13.49-.55-26.99-1.11-40.46-1.61-9.83-.41-19.05,5.78-20.24,15.3-1.1,8.8,6.12,18.31,16,18.7Z"/>
        <path class="cls-1" d="M145.47,290.35c13.49.55,26.99,1.11,40.46,1.61,5.84.24,12-3.52,12.45-9.43.45-5.4-3.6-11.28-9.87-11.5l-40.46-1.61c-5.84-.24-12,3.52-12.45,9.43-.45,5.4,3.6,11.28,9.87,11.5Z"/>
      </g>
    </g>
    <path class="cls-6" d="M69.71,215.36c11.56,53.46,114.58,131.05,164.65,163.16,27.92-33.35,42.52-107.23-1.78-208.33-48.17-109.94-180.31-35.49-162.87,45.17Z"/>
    <path class="cls-6" d="M402.45,218.68c-12.52,53.25-116.92,128.97-167.55,160.17-27.31-33.85-40.59-107.97,5.52-208.26,50.14-109.06,180.92-32.24,162.03,48.09Z"/>
    <path class="cls-7" d="M171.81,221.65c-11.54-9.73-23.64-18.65-36.41-26.74-5.77-3.63-14.33-2.71-18.12,3.44-3.78,6.15-2.71,14.21,3.46,18.11,12.76,8.08,24.86,17,36.41,26.74,2.39,2.02,6.87,2.59,9.84,2.03,3.19-.61,6.62-2.73,8.4-5.49,1.78-2.76,2.85-6.39,2.02-9.83-.86-3.56-2.68-5.98-5.5-8.4l-.09.14Z"/>
    <path class="cls-7" d="M217.62,210.25c-5.19-14.1-10.9-28.06-17.14-41.81-1.41-3.12-3.71-5.84-6.94-7.26-2.93-1.29-7.02-1.56-10.04-.2-3.02,1.36-5.99,3.64-7.26,6.93-1.27,3.29-1.64,6.8-.19,10.03,6.17,13.72,11.98,27.64,17.14,41.81,2.38,6.42,10.55,10.27,16.98,7.46,6.43-2.81,9.96-10.04,7.45-16.96Z"/>
    <path class="cls-7" d="M282.86,216.64c2.13-4.89,4.45-9.76,6.84-14.58l-1.57,3.19c2.87-5.68,5.92-11.34,9.06-16.83,1.78-3.05,2.74-6.36,2.11-9.96-.61-3.19-2.76-6.74-5.64-8.49-2.87-1.76-6.51-2.84-9.97-2.12s-6.78,2.53-8.49,5.63c-6.42,11.19-12.3,22.76-17.52,34.67-1.28,2.9-.74,7.22.55,9.99,1.45,2.97,4.5,5.93,7.75,6.85,3.25.92,6.93,1.05,9.99-.54,3.27-1.74,5.38-4.27,6.85-7.73l.05-.07Z"/>
    <path class="cls-7" d="M328.21,245.88l23.73-19.4c2.89-2.31,4.98-5.43,5.55-9.2.46-3.29-.42-7.43-2.47-10.12-2.24-2.86-5.52-5.19-9.21-5.56-3.43-.34-7.34.19-10.13,2.45l-23.73,19.4c-2.89,2.31-4.98,5.43-5.55,9.2-.46,3.29.42,7.43,2.47,10.12,2.24,2.86,5.52,5.19,9.21,5.56,3.43.34,7.34-.19,10.13-2.45Z"/>
    <path class="cls-9" d="M135.11,276.49c37.88-31.9,132.95-76.14,210.19,2.09-38.18,25.51-133.66,60.8-210.19-2.09Z"/>
    <path class="cls-3" d="M239.97,230.21c-45.6,2.08-53.72,43.78-46.51,61.26,18.6,39.75,67.76,29.16,85.35,11.93,17.58-17.24,18.16-75.79-38.84-73.19Z"/>
    <path class="cls-8" d="M240.05,246.52c-30.4,1.36-35.81,28.8-31,40.3,12.4,26.15,45.18,19.19,56.9,7.85,11.72-11.34,12.1-49.86-25.9-48.16Z"/>
    <path class="cls-2" d="M238.91,265.16c-16.29.7-19.18,14.97-16.6,20.95,6.65,13.6,24.21,9.99,30.48,4.09,6.28-5.89,6.48-25.93-13.88-25.04Z"/>
    <g>
      <path class="cls-5" d="M236.7,419.75s49.4-5.04,27.92-28.54c-21.48-23.5-27.47,14.4-29.49,21.91"/>
      <path class="cls-5" d="M234.25,416.46s-49.51,6.25-28.04,29.75c21.48,23.5,28.92-18.64,30.93-26.15"/>
      <path class="cls-5" d="M236.55,419.59s-51.66-.83-32.24-26.07c19.41-25.23,28.59,12.02,31.23,19.33"/>
      <path class="cls-5" d="M237.82,418.12s48.34.4,28.93,25.64c-19.41,25.23-28.99-15.1-31.63-22.41"/>
      <path class="cls-5" d="M235.18,419.98s-1.36,28.81-6.5,44.35c-1.7,5.13,4.85,5.6,8.05,4.44.99-.36,1.65-1.3,1.64-2.35-.04-8-.41-41.61-3.43-46.46-1.21-1.95.25.02.25.02Z"/>
    </g>
  </g>
</svg>